<?xml version="1.0" encoding="UTF-8"?>
<!DOCTYPE svg PUBLIC "-//W3C//DTD SVG 1.1//EN" "http://www.w3.org/Graphics/SVG/1.1/DTD/svg11.dtd">
<svg xmlns="http://www.w3.org/2000/svg" version="1.1" width="128px" height="86px" style="shape-rendering:geometricPrecision; text-rendering:geometricPrecision; image-rendering:optimizeQuality; fill-rule:evenodd; clip-rule:evenodd" xmlns:xlink="http://www.w3.org/1999/xlink">
<g><path style="opacity:0.996" fill="#84819E" d="M 74.5,5.5 C 75.6216,4.84417 76.9549,4.51084 78.5,4.5C 80.8825,4.36103 82.8825,5.02769 84.5,6.5C 81.1667,6.16667 77.8333,5.83333 74.5,5.5 Z"/></g>
<g><path style="opacity:0.992" fill="#84819E" d="M 67.5,5.5 C 67.8333,5.5 68.1667,5.5 68.5,5.5C 70.5,5.5 72.5,5.5 74.5,5.5C 72.2854,6.2679 69.9521,6.93457 67.5,7.5C 67.5,6.83333 67.5,6.16667 67.5,5.5 Z"/></g>
<g><path style="opacity:0.994" fill="#84819E" d="M 74.5,5.5 C 77.8333,5.83333 81.1667,6.16667 84.5,6.5C 85.1667,6.5 85.8333,6.5 86.5,6.5C 87.5622,9.37805 89.5622,11.378 92.5,12.5C 92.8417,13.3382 93.5084,13.6716 94.5,13.5C 95.0916,16.1272 95.4249,18.7938 95.5,21.5C 95.6655,25.5138 95.4988,29.5138 95,33.5C 93.5187,34.4709 92.6854,35.8042 92.5,37.5C 88.7753,40.8876 85.4419,44.5542 82.5,48.5C 79.3497,50.577 76.0164,52.4104 72.5,54C 67.8065,54.5639 63.1398,54.3973 58.5,53.5C 53.6788,51.567 51.0121,47.9003 50.5,42.5C 54.5357,42.3533 57.8691,43.8533 60.5,47C 62.0249,48.0086 63.6916,48.5086 65.5,48.5C 68.0593,48.8016 70.3926,48.4682 72.5,47.5C 74.3797,47.7709 75.713,47.1042 76.5,45.5C 78.5,42.8333 80.8333,40.5 83.5,38.5C 84.4959,38.5858 85.3292,38.2524 86,37.5C 87.4213,35.5952 88.588,33.5952 89.5,31.5C 90.1174,31.3893 90.6174,31.056 91,30.5C 91.6667,27.1667 91.6667,23.8333 91,20.5C 90.6174,19.944 90.1174,19.6107 89.5,19.5C 88.9078,15.9111 86.9078,13.5778 83.5,12.5C 83.1667,12.5 82.8333,12.5 82.5,12.5C 81.6661,11.2521 80.3328,10.5854 78.5,10.5C 76.9549,10.5108 75.6216,10.8442 74.5,11.5C 74.5,12.1667 74.1667,12.5 73.5,12.5C 69.1534,13.4663 65.4868,15.7996 62.5,19.5C 60.9291,20.3094 59.2624,20.6427 57.5,20.5C 57.0225,16.3104 58.6892,13.3104 62.5,11.5C 64.889,11.0212 66.5557,9.6879 67.5,7.5C 69.9521,6.93457 72.2854,6.2679 74.5,5.5 Z"/></g>
<g><path style="opacity:0.929" fill="#84819E" d="M 93.5,39.5 C 93.5,38.8333 93.5,38.1667 93.5,37.5C 97.0823,32.5919 98.0823,27.2585 96.5,21.5C 96.8893,18.4467 96.2227,15.78 94.5,13.5C 93.5084,13.6716 92.8417,13.3382 92.5,12.5C 91.0499,10.0772 89.0499,8.07725 86.5,6.5C 85.8333,6.5 85.1667,6.5 84.5,6.5C 82.8825,5.02769 80.8825,4.36103 78.5,4.5C 76.9549,4.51084 75.6216,4.84417 74.5,5.5C 72.5,5.5 70.5,5.5 68.5,5.5C 83.1693,-0.0869892 93.336,4.57968 99,19.5C 100.477,27.2156 98.644,33.8822 93.5,39.5 Z"/></g>
<g><path style="opacity:0.937" fill="#84819E" d="M 67.5,5.5 C 67.5,6.16667 67.5,6.83333 67.5,7.5C 65.2054,8.13554 63.5387,9.46888 62.5,11.5C 58.6892,13.3104 57.0225,16.3104 57.5,20.5C 58.9187,21.4511 60.5853,21.7845 62.5,21.5C 62.1344,22.6946 61.301,23.3613 60,23.5C 55.394,22.6893 53.7273,20.0227 55,15.5C 58.4839,11.1689 62.6505,7.83561 67.5,5.5 Z"/></g>
<g><path style="opacity:0.969" fill="#84819E" d="M 67.5,7.5 C 66.5557,9.6879 64.889,11.0212 62.5,11.5C 63.5387,9.46888 65.2054,8.13554 67.5,7.5 Z"/></g>
<g><path style="opacity:0.043" fill="#84819E" d="M 74.5,11.5 C 75.6216,10.8442 76.9549,10.5108 78.5,10.5C 80.3328,10.5854 81.6661,11.2521 82.5,12.5C 79.8728,11.9084 77.2062,11.5751 74.5,11.5 Z"/></g>
<g><path style="opacity:1" fill="#84819E" d="M 86.5,6.5 C 89.0499,8.07725 91.0499,10.0772 92.5,12.5C 89.5622,11.378 87.5622,9.37805 86.5,6.5 Z"/></g>
<g><path style="opacity:0.667" fill="#84819E" d="M 83.5,12.5 C 86.9078,13.5778 88.9078,15.9111 89.5,19.5C 88.8333,19.1667 88.1667,18.8333 87.5,18.5C 86.5589,16.2279 85.2255,14.2279 83.5,12.5 Z"/></g>
<g><path style="opacity:0.42" fill="#84819E" d="M 73.5,12.5 C 69.59,15.0644 65.9233,18.0644 62.5,21.5C 60.5853,21.7845 58.9187,21.4511 57.5,20.5C 59.2624,20.6427 60.9291,20.3094 62.5,19.5C 65.4868,15.7996 69.1534,13.4663 73.5,12.5 Z"/></g>
<g><path style="opacity:1" fill="#84819E" d="M 94.5,13.5 C 96.2227,15.78 96.8893,18.4467 96.5,21.5C 96.1667,21.5 95.8333,21.5 95.5,21.5C 95.4249,18.7938 95.0916,16.1272 94.5,13.5 Z"/></g>
<g><path style="opacity:0.997" fill="#84819E" d="M 89.5,19.5 C 90.1174,19.6107 90.6174,19.944 91,20.5C 91.6667,23.8333 91.6667,27.1667 91,30.5C 90.6174,31.056 90.1174,31.3893 89.5,31.5C 90.8333,27.5 90.8333,23.5 89.5,19.5 Z"/></g>
<g><path style="opacity:0.997" fill="#84819E" d="M 95.5,21.5 C 95.8333,21.5 96.1667,21.5 96.5,21.5C 98.0823,27.2585 97.0823,32.5919 93.5,37.5C 93.1667,37.5 92.8333,37.5 92.5,37.5C 92.6854,35.8042 93.5187,34.4709 95,33.5C 95.4988,29.5138 95.6655,25.5138 95.5,21.5 Z"/></g>
<g><path style="opacity:0.994" fill="#84819E" d="M 49.5,28.5 C 55.473,27.7419 60.8063,29.0752 65.5,32.5C 66.5,34.8333 68.1667,36.5 70.5,37.5C 69.4766,41.3999 67.1433,42.3999 63.5,40.5C 59.7311,35.1146 54.7311,33.4479 48.5,35.5C 46.9557,35.7031 45.6223,36.3698 44.5,37.5C 41.1581,40.8761 37.8248,44.2094 34.5,47.5C 33.0476,48.9397 32.0476,50.6064 31.5,52.5C 31.5,52.8333 31.5,53.1667 31.5,53.5C 30.2353,54.5145 29.5687,56.0145 29.5,58C 29.5085,59.7067 29.8418,61.2067 30.5,62.5C 31.3127,64.2608 32.3127,65.9275 33.5,67.5C 34.0241,70.1878 35.6908,71.6878 38.5,72C 41.6965,72.8045 44.6965,72.6378 47.5,71.5C 50.8573,71.7841 53.1906,70.4507 54.5,67.5C 56.4532,64.0219 59.4532,62.3552 63.5,62.5C 63.6602,64.1992 63.4935,65.8659 63,67.5C 59.7515,71.4189 55.9181,74.5856 51.5,77C 48.5318,77.6936 45.5318,78.1936 42.5,78.5C 38.0002,78.2294 34.0002,76.8961 30.5,74.5C 29.2013,71.6047 27.5346,68.938 25.5,66.5C 24.5033,60.458 24.8366,54.458 26.5,48.5C 31.0755,42.2537 36.4088,36.587 42.5,31.5C 45.3852,31.357 47.7185,30.357 49.5,28.5 Z"/></g>
<g><path style="opacity:0.961" fill="#84819E" d="M 87.5,18.5 C 88.1667,18.8333 88.8333,19.1667 89.5,19.5C 90.8333,23.5 90.8333,27.5 89.5,31.5C 86.7997,33.2344 84.7997,35.5677 83.5,38.5C 80.8333,40.5 78.5,42.8333 76.5,45.5C 74.847,45.6596 73.5137,46.3263 72.5,47.5C 70.3926,48.4682 68.0593,48.8016 65.5,48.5C 65.5,47.8333 65.5,47.1667 65.5,46.5C 68.3198,46.7525 70.9865,46.2525 73.5,45C 78,40.5 82.5,36 87,31.5C 88.8249,27.2379 88.9916,22.9046 87.5,18.5 Z"/></g>
<g><path style="opacity:0.929" fill="#84819E" d="M 63.5,40.5 C 67.1433,42.3999 69.4766,41.3999 70.5,37.5C 69.8333,34.8333 68.1667,33.1667 65.5,32.5C 60.8063,29.0752 55.473,27.7419 49.5,28.5C 46.7282,28.7587 44.3949,29.7587 42.5,31.5C 36.4088,36.587 31.0755,42.2537 26.5,48.5C 25.8826,48.6107 25.3826,48.944 25,49.5C 22.8661,55.3714 23.0328,61.0381 25.5,66.5C 27.5346,68.938 29.2013,71.6047 30.5,74.5C 26.8467,73.0106 24.3467,70.3439 23,66.5C 20.3485,58.6647 21.3485,51.3314 26,44.5C 31.9512,37.5423 38.7845,31.7089 46.5,27C 55.9478,24.7412 64.1145,26.9078 71,33.5C 72.5666,36.3945 72.7333,39.3945 71.5,42.5C 69.1432,42.6633 66.8098,42.4966 64.5,42C 63.944,41.6174 63.6107,41.1174 63.5,40.5 Z"/></g>
<g><path style="opacity:1" fill="#84819E" d="M 49.5,28.5 C 47.7185,30.357 45.3852,31.357 42.5,31.5C 44.3949,29.7587 46.7282,28.7587 49.5,28.5 Z"/></g>
<g><path style="opacity:1" fill="#84819E" d="M 65.5,32.5 C 68.1667,33.1667 69.8333,34.8333 70.5,37.5C 68.1667,36.5 66.5,34.8333 65.5,32.5 Z"/></g>
<g><path style="opacity:0.992" fill="#84819E" d="M 89.5,31.5 C 88.588,33.5952 87.4213,35.5952 86,37.5C 85.3292,38.2524 84.4959,38.5858 83.5,38.5C 84.7997,35.5677 86.7997,33.2344 89.5,31.5 Z"/></g>
<g><path style="opacity:0.745" fill="#84819E" d="M 48.5,35.5 C 43.4721,40.8595 38.4721,46.1929 33.5,51.5C 32.8333,51.8333 32.1667,52.1667 31.5,52.5C 32.0476,50.6064 33.0476,48.9397 34.5,47.5C 37.8248,44.2094 41.1581,40.8761 44.5,37.5C 45.6223,36.3698 46.9557,35.7031 48.5,35.5 Z"/></g>
<g><path style="opacity:0.071" fill="#84819E" d="M 92.5,37.5 C 92.8333,37.5 93.1667,37.5 93.5,37.5C 93.5,38.1667 93.5,38.8333 93.5,39.5C 90.1053,43.8976 86.1053,47.5643 81.5,50.5C 81.8333,49.8333 82.1667,49.1667 82.5,48.5C 85.4419,44.5542 88.7753,40.8876 92.5,37.5 Z"/></g>
<g><path style="opacity:1" fill="#84819E" d="M 76.5,45.5 C 75.713,47.1042 74.3797,47.7709 72.5,47.5C 73.5137,46.3263 74.847,45.6596 76.5,45.5 Z"/></g>
<g><path style="opacity:0.537" fill="#84819E" d="M 65.5,46.5 C 65.5,47.1667 65.5,47.8333 65.5,48.5C 63.6916,48.5086 62.0249,48.0086 60.5,47C 57.8691,43.8533 54.5357,42.3533 50.5,42.5C 51.0121,47.9003 53.6788,51.567 58.5,53.5C 51.32,52.3441 48.6533,48.3441 50.5,41.5C 54.6423,40.0602 57.9756,41.2268 60.5,45C 62.0249,46.0086 63.6916,46.5086 65.5,46.5 Z"/></g>
<g><path style="opacity:1" fill="#84819E" d="M 26.5,48.5 C 24.8366,54.458 24.5033,60.458 25.5,66.5C 23.0328,61.0381 22.8661,55.3714 25,49.5C 25.3826,48.944 25.8826,48.6107 26.5,48.5 Z"/></g>
<g><path style="opacity:0.051" fill="#84819E" d="M 82.5,48.5 C 82.1667,49.1667 81.8333,49.8333 81.5,50.5C 80.2287,52.9339 78.2287,54.4339 75.5,55C 70.5,55.6667 65.5,55.6667 60.5,55C 59.5842,54.7216 58.9175,54.2216 58.5,53.5C 63.1398,54.3973 67.8065,54.5639 72.5,54C 76.0164,52.4104 79.3497,50.577 82.5,48.5 Z"/></g>
<g><path style="opacity:0.996" fill="#84819E" d="M 31.5,53.5 C 30.8413,56.4552 30.5079,59.4552 30.5,62.5C 30.5079,59.4552 30.8413,56.4552 31.5,53.5 Z"/></g>
<g><path style="opacity:0.647" fill="#84819E" d="M 33.5,51.5 C 31.5399,57.5757 32.5399,63.0757 36.5,68C 40.3749,69.5204 44.3749,69.8538 48.5,69C 52.3819,65.6106 56.3819,62.4439 60.5,59.5C 66.0221,59.6078 67.8554,62.2744 66,67.5C 65.6174,68.056 65.1174,68.3893 64.5,68.5C 64.7947,66.2646 64.4614,64.2646 63.5,62.5C 59.4532,62.3552 56.4532,64.0219 54.5,67.5C 52.1246,68.9017 49.7912,70.235 47.5,71.5C 42.2489,71.7923 37.5822,70.4589 33.5,67.5C 32.3127,65.9275 31.3127,64.2608 30.5,62.5C 30.5079,59.4552 30.8413,56.4552 31.5,53.5C 31.5,53.1667 31.5,52.8333 31.5,52.5C 32.1667,52.1667 32.8333,51.8333 33.5,51.5 Z"/></g>
<g><path style="opacity:0.984" fill="#84819E" d="M 54.5,67.5 C 53.1906,70.4507 50.8573,71.7841 47.5,71.5C 49.7912,70.235 52.1246,68.9017 54.5,67.5 Z"/></g>
<g><path style="opacity:1" fill="#84819E" d="M 33.5,67.5 C 37.5822,70.4589 42.2489,71.7923 47.5,71.5C 44.6965,72.6378 41.6965,72.8045 38.5,72C 35.6908,71.6878 34.0241,70.1878 33.5,67.5 Z"/></g>
<g><path style="opacity:0.949" fill="#84819E" d="M 63.5,62.5 C 64.4614,64.2646 64.7947,66.2646 64.5,68.5C 57.2987,78.7658 47.6321,82.2658 35.5,79C 33.3395,78.0041 31.6728,76.5041 30.5,74.5C 34.0002,76.8961 38.0002,78.2294 42.5,78.5C 45.5318,78.1936 48.5318,77.6936 51.5,77C 55.9181,74.5856 59.7515,71.4189 63,67.5C 63.4935,65.8659 63.6602,64.1992 63.5,62.5 Z"/></g>
</svg>
